<svg xmlns="http://www.w3.org/2000/svg" version="1.1" xmlns:xlink="http://www.w3.org/1999/xlink" xmlns:svgjs="http://svgjs.com/svgjs" width="1440" height="560" preserveAspectRatio="none" viewBox="0 0 1440 560"><g mask="url(&quot;#SvgjsMask1003&quot;)" fill="none"><rect width="1440" height="560" x="0" y="0" fill="rgba(84, 180, 110, 1)"></rect><path d="M0,478.496C88.949,474.145,162.886,418.105,239.197,372.198C317.862,324.875,399.712,281.843,452.149,206.49C511.137,121.723,559.109,23.529,553.592,-79.595C547.872,-186.519,492.216,-284.828,421.56,-365.284C351.202,-445.4,261.469,-514.939,156.229,-532.069C55.514,-548.462,-43.533,-503.262,-133.8,-455.68C-211.518,-414.713,-258.895,-340.015,-322.695,-279.617C-395.069,-211.102,-510.044,-173.513,-534.036,-76.783C-558.072,20.123,-492.885,115.935,-442.13,201.914C-395.422,281.036,-332.62,347.634,-254.726,396.362C-177.529,444.654,-90.949,482.945,0,478.496" fill="#409357"></path><path d="M1440 927.967C1506.86 917.169 1555.233 861.951 1603.558 814.501 1643.788 774.999 1665.417 724.318 1695.783 676.812 1732.009 620.138 1811.232 574.535 1799.251 508.348 1787.15 441.501 1697.274 424.873 1642.824 384.252 1601.189 353.19100000000003 1564.211 319.435 1516.995 297.78 1462.871 272.956 1408.283 246.70299999999997 1348.799 249.399 1279.758 252.52800000000002 1192.478 255.27300000000002 1156.251 314.13 1118.8029999999999 374.971 1183.06 451.302 1180.58 522.701 1178.49 582.875 1133.1779999999999 636.233 1142.997 695.637 1154.1970000000001 763.3969999999999 1184.464 831.136 1238.558 873.451 1294.481 917.197 1369.907 939.287 1440 927.967" fill="#79c48d"></path></g><defs><mask id="SvgjsMask1003"><rect width="1440" height="560" fill="#ffffff"></rect></mask></defs></svg>