<svg xmlns="http://www.w3.org/2000/svg" version="1.1" xmlns:xlink="http://www.w3.org/1999/xlink" xmlns:svgjs="http://svgjs.com/svgjs" width="1444" height="560" preserveAspectRatio="none" viewBox="0 0 1444 560"><g mask="url(&quot;#SvgjsMask1027&quot;)" fill="none"><path d="M98.837,224.822C140.51,223.278,168.834,187.401,189.309,151.071C209.299,115.601,222.636,74.314,204.087,38.07C184.056,-1.07,142.784,-27.063,98.837,-25.709C56.83,-24.415,24.762,7.545,4.247,44.225C-15.687,79.867,-22.988,122.056,-4.04,158.232C16.274,197.016,55.085,226.442,98.837,224.822" fill="rgba(28, 83, 142, 0.4)" class="triangle-float2"></path><path d="M115.016,252.425C161.067,252.161,193.262,213.345,217.423,174.14C243.31,132.134,270.988,81.941,246.471,39.121C221.872,-3.842,164.412,-8.031,115.016,-4.719C72.251,-1.852,32.426,17.841,10.917,54.914C-10.672,92.124,-9.502,137.269,10.556,175.326C32.183,216.36,68.633,252.691,115.016,252.425" fill="rgba(28, 83, 142, 0.4)" class="triangle-float1"></path><path d="M46.275,120.402C71.285,119.483,90.751,100.84,102.655,78.826C113.909,58.014,115.146,33.784,104.554,12.628C92.638,-11.172,72.882,-33.097,46.275,-33.782C18.767,-34.49,-4.236,-14.653,-17.445,9.486C-30.096,32.604,-30.895,60.398,-17.767,83.249C-4.591,106.185,19.842,121.373,46.275,120.402" fill="rgba(28, 83, 142, 0.4)" class="triangle-float2"></path><path d="M1408.298,186.592C1447.349,189.285,1484.789,165.597,1502.543,130.711C1518.971,98.43,1508.235,60.302,1487.783,30.408C1470.058,4.5,1439.688,-6.857,1408.298,-7.041C1376.52,-7.227,1343.286,2.069,1327.184,29.467C1310.91,57.158,1319.431,90.559,1334.165,119.099C1350.595,150.926,1372.565,184.128,1408.298,186.592" fill="rgba(28, 83, 142, 0.4)" class="triangle-float3"></path><path d="M1465.651,289.289C1520.171,289.918,1570.282,256.932,1595.035,208.351C1617.84,163.594,1605.251,110.984,1578.003,68.784C1553.245,30.439,1511.204,10.836,1465.651,7.968C1413.275,4.671,1353.76,8.497,1325.799,52.908C1296.618,99.258,1313.446,158.286,1341.335,205.425C1368.615,251.534,1412.08,288.671,1465.651,289.289" fill="rgba(28, 83, 142, 0.4)" class="triangle-float3"></path><path d="M1350.789,68.623C1369.465,68.479,1389.121,62.475,1397.919,46C1406.364,30.187,1398.322,12.045,1389.267,-3.427C1380.338,-18.682,1368.464,-34.379,1350.789,-34.525C1332.944,-34.673,1320.325,-19.404,1311.192,-4.072C1301.764,11.756,1293.57,30.557,1302.382,46.736C1311.461,63.404,1331.81,68.769,1350.789,68.623" fill="rgba(28, 83, 142, 0.4)" class="triangle-float3"></path><path d="M98.885,658.266C139.147,657.373,177.776,638.934,197.63,603.896C217.228,569.309,212.349,527.28,192.682,492.732C172.781,457.772,139.113,430.406,98.885,430.433C58.696,430.46,25.958,458.38,5.306,492.857C-16.05,528.509,-28.21,572.278,-7.746,608.449C12.959,645.046,56.847,659.198,98.885,658.266" fill="rgba(28, 83, 142, 0.4)" class="triangle-float1"></path><path d="M75.499,605.307C106.814,603.974,137.795,595.525,155.731,569.821C176.721,539.74,189.011,500.314,171.093,468.308C152.885,435.783,112.696,424.099,75.499,426.506C42.384,428.648,16.6,451.193,-0.829,479.431C-19.439,509.583,-35.88,546.899,-17.508,577.197C0.491,606.879,40.817,606.784,75.499,605.307" fill="rgba(28, 83, 142, 0.4)" class="triangle-float1"></path><path d="M48.208,564.147C72.328,562.772,93.942,550.502,106.493,529.859C119.598,508.306,123.082,482.05,111.864,459.457C99.294,434.139,76.455,413.525,48.208,412.467C18.319,411.348,-9.475,428.368,-24.277,454.359C-38.931,480.091,-39.161,512.519,-22.846,537.231C-7.889,559.885,21.106,565.692,48.208,564.147" fill="rgba(28, 83, 142, 0.4)" class="triangle-float3"></path><path d="M1368.952,540.276C1390.148,540.594,1411.318,533.825,1423.219,516.283C1436.732,496.366,1442.526,470.265,1430.657,449.327C1418.662,428.166,1393.208,418.736,1368.952,420.553C1347.501,422.16,1331.743,438.638,1321.417,457.508C1311.585,475.475,1307.234,496.936,1317.434,514.696C1327.668,532.516,1348.404,539.968,1368.952,540.276" fill="rgba(28, 83, 142, 0.4)" class="triangle-float1"></path><path d="M1409.555,628.216C1448.396,631.26,1489.504,616.7,1508.695,582.794C1527.672,549.266,1517.695,507.469,1495.869,475.722C1476.851,448.06,1443.112,439.477,1409.555,438.594C1373.86,437.654,1332.865,440.047,1314.996,470.961C1297.118,501.891,1315.701,538.497,1334.111,569.113C1351.756,598.456,1375.42,625.541,1409.555,628.216" fill="rgba(28, 83, 142, 0.4)" class="triangle-float1"></path><path d="M1359.169,527.323C1378.205,527.234,1397.307,519.155,1406.232,502.341C1414.728,486.334,1408.671,467.502,1399.083,452.124C1390.154,437.802,1375.992,428.215,1359.169,426.852C1339.285,425.242,1316.861,427.724,1306.228,444.603C1295.106,462.258,1300.087,485.211,1311.335,502.786C1321.689,518.964,1339.962,527.413,1359.169,527.323" fill="rgba(28, 83, 142, 0.4)" class="triangle-float2"></path></g><defs><mask id="SvgjsMask1027"><rect width="1444" height="560" fill="#ffffff"></rect></mask><style>
            @keyframes float1 {
                0%{transform: translate(0, 0)}
                50%{transform: translate(-10px, 0)}
                100%{transform: translate(0, 0)}
            }

            .triangle-float1 {
                animation: float1 5s infinite;
            }

            @keyframes float2 {
                0%{transform: translate(0, 0)}
                50%{transform: translate(-5px, -5px)}
                100%{transform: translate(0, 0)}
            }

            .triangle-float2 {
                animation: float2 4s infinite;
            }

            @keyframes float3 {
                0%{transform: translate(0, 0)}
                50%{transform: translate(0, -10px)}
                100%{transform: translate(0, 0)}
            }

            .triangle-float3 {
                animation: float3 6s infinite;
            }
        </style></defs></svg>