<svg xmlns="http://www.w3.org/2000/svg" version="1.1" xmlns:xlink="http://www.w3.org/1999/xlink" xmlns:svgjs="http://svgjs.com/svgjs" width="1440" height="560" preserveAspectRatio="none" viewBox="0 0 1440 560"><g mask="url(&quot;#SvgjsMask1814&quot;)" fill="none"><rect width="1440" height="560" x="0" y="0" fill="url(#SvgjsLinearGradient1815)"></rect><path d="M0 0L393.81 0L0 76.22z" fill="rgba(255, 255, 255, .1)"></path><path d="M0 76.22L393.81 0L911.4100000000001 0L0 195.88z" fill="rgba(255, 255, 255, .075)"></path><path d="M0 195.88L911.4100000000001 0L968.6700000000001 0L0 373.03999999999996z" fill="rgba(255, 255, 255, .05)"></path><path d="M0 373.03999999999996L968.6700000000001 0L1220.31 0L0 439.51z" fill="rgba(255, 255, 255, .025)"></path><path d="M1440 560L1046.38 560L1440 382.52z" fill="rgba(0, 0, 0, .1)"></path><path d="M1440 382.52L1046.38 560L802.7400000000001 560L1440 193.86999999999998z" fill="rgba(0, 0, 0, .075)"></path><path d="M1440 193.87L802.74 560L605.29 560L1440 190.19z" fill="rgba(0, 0, 0, .05)"></path><path d="M1440 190.19L605.29 560L468.14 560L1440 90.28z" fill="rgba(0, 0, 0, .025)"></path></g><defs><mask id="SvgjsMask1814"><rect width="1440" height="560" fill="#ffffff"></rect></mask><linearGradient x1="100%" y1="50%" x2="0%" y2="50%" gradientUnits="userSpaceOnUse" id="SvgjsLinearGradient1815"><stop stop-color="rgba(255, 255, 255, 1)" offset="0"></stop><stop stop-color="rgba(247, 217, 255, 0.82)" offset="1"></stop></linearGradient></defs></svg>