<svg xmlns="http://www.w3.org/2000/svg" version="1.1" xmlns:xlink="http://www.w3.org/1999/xlink" xmlns:svgjs="http://svgjs.com/svgjs" width="1440" height="560" preserveAspectRatio="none" viewBox="0 0 1440 560"><g mask="url(&quot;#SvgjsMask1017&quot;)" fill="none"><path d="M788.0298010408794 177.30090730102015L901.1752843681611 119.78616265381744 809.1918780837168 57.7425717067826z" fill="rgba(28, 83, 142, 0.4)" class="triangle-float2"></path><path d="M242.096,367.72C296.3,368.316,326.273,311.148,352.63,263.78C377.946,218.282,405.011,166.021,379.622,120.563C353.839,74.399,294.972,65.826,242.096,65.872C189.326,65.918,130.209,74.451,104.985,120.802C80.41,165.961,110.736,216.447,135.695,261.395C161.784,308.377,188.359,367.129,242.096,367.72" fill="rgba(28, 83, 142, 0.4)" class="triangle-float1"></path><path d="M1209.4725182232796 234.67348420493954L1141.3922443173585 121.36888119051187 1028.087641302931 189.4491550964329 1096.167915208852 302.7537581108606z" fill="rgba(28, 83, 142, 0.4)" class="triangle-float3"></path><path d="M-65.56893432308567 345.219096909304L61.13321500958318 388.8461455876926 104.76026368797176 262.14399625502375-21.941885644697102 218.51694757663518z" fill="rgba(28, 83, 142, 0.4)" class="triangle-float2"></path><path d="M986.5297933298014 38.07013764512155L1060.3803147967785 123.02544439752903 1145.335621549186 49.17492293055186 1071.4851000822089-35.78038382185562z" fill="rgba(28, 83, 142, 0.4)" class="triangle-float3"></path><path d="M461.954370711595 453.9164204435494L539.2239912866767 564.2688750495716 572.3068253176173 376.6467998684677z" fill="rgba(28, 83, 142, 0.4)" class="triangle-float1"></path><path d="M1369.1344146379781 116.62519494095041L1376.8136604867739 28.85101324345156 1289.039478789275 21.171767394655788 1281.3602329404794 108.94594909215463z" fill="rgba(28, 83, 142, 0.4)" class="triangle-float2"></path><path d="M892.9399541531958 236.21801544941232L817.9031906379894 322.5379375774199 904.2231127659969 397.57470109262624 979.2598762812033 311.2547789646187z" fill="rgba(28, 83, 142, 0.4)" class="triangle-float1"></path><path d="M-40.746062528550596 370.0424555852592L71.9866636227435 341.9350301188898 43.87923815637413 229.2023039675957-68.85348799491996 257.30972943396506z" fill="rgba(28, 83, 142, 0.4)" class="triangle-float1"></path><path d="M745.264,597.698C797.974,598.064,841.175,559.45,866.059,512.983C889.482,469.245,892.523,415.393,864.999,374.113C839.831,336.367,790.615,333.028,745.264,331.819C696.67,330.524,640.631,326.794,613.941,367.422C585.591,410.577,601.763,466.472,627.342,511.325C653.212,556.689,693.043,597.335,745.264,597.698" fill="rgba(28, 83, 142, 0.4)" class="triangle-float3"></path><path d="M1325.8149966818332 417.04570465034436L1248.8296993293086 451.32176737869565 1283.1057620576598 528.3070647312204 1360.0910594101845 494.03100200286906z" fill="rgba(28, 83, 142, 0.4)" class="triangle-float3"></path><path d="M1162.33,623.866C1197.333,623.693,1233.611,611.296,1250.159,580.452C1266.052,550.828,1252.224,516.662,1235.487,487.506C1218.652,458.18,1196.145,427.486,1162.33,427.453C1128.479,427.42,1105.921,458.088,1088.923,487.362C1071.825,516.808,1056.856,551.339,1072.983,581.328C1089.727,612.465,1126.976,624.041,1162.33,623.866" fill="rgba(28, 83, 142, 0.4)" class="triangle-float3"></path><path d="M49.25606720643682 509.8653764284743L112.53224474094407 611.1284282026776 150.51911898064012 446.589198893967z" fill="rgba(28, 83, 142, 0.4)" class="triangle-float2"></path><path d="M511.662,707.157C562.01,711.098,607.2,676.92,631.942,632.894C656.179,589.767,655.448,537.556,631.218,494.425C606.463,450.359,562.162,416.714,511.662,418.79C463.852,420.756,428.126,460.19,408.003,503.603C390.972,540.346,401.727,580.223,420.105,616.311C441.016,657.373,465.723,703.561,511.662,707.157" fill="rgba(28, 83, 142, 0.4)" class="triangle-float2"></path><path d="M-65.64436693183706 252.41309707428354L-22.83524426981667 370.03019493484777 94.78185359074755 327.22107227282737 51.97273092872716 209.60397441226314z" fill="rgba(28, 83, 142, 0.4)" class="triangle-float1"></path><path d="M779.8070535449858 248.35063315463083L920.6280981050966 205.29731923754773 877.5747841880135 64.47627467743698 736.7537396279027 107.52958859452008z" fill="rgba(28, 83, 142, 0.4)" class="triangle-float1"></path><path d="M500.87006818429745 349.1073931452224L612.2694320969132 196.0862099113686 448.04596777606537 175.92210395477943z" fill="rgba(28, 83, 142, 0.4)" class="triangle-float1"></path><path d="M1255.1047554477589 479.5387043513105L1386.4674482292007 568.3262254114668 1398.5473353113496 430.25248425105343z" fill="rgba(28, 83, 142, 0.4)" class="triangle-float1"></path><path d="M312.983,314.657C367.132,313.719,414.403,282.41,442.712,236.241C472.537,187.601,485.507,127.587,458.51,77.322C430.221,24.651,372.767,-5.847,312.983,-5.3C254.124,-4.761,200.74,28.577,171.997,79.943C143.915,130.127,145.615,191.578,175.227,240.875C203.975,288.735,257.161,315.624,312.983,314.657" fill="rgba(28, 83, 142, 0.4)" class="triangle-float1"></path><path d="M1288.4832030096866 388.15015441759283L1390.0858282950296 290.03363968860765 1291.9693135660443 188.4310144032647 1190.3666882807015 286.54752913224985z" fill="rgba(28, 83, 142, 0.4)" class="triangle-float3"></path></g><defs><mask id="SvgjsMask1017"><rect width="1440" height="560" fill="#ffffff"></rect></mask><style>
            @keyframes float1 {
                0%{transform: translate(0, 0)}
                50%{transform: translate(-10px, 0)}
                100%{transform: translate(0, 0)}
            }

            .triangle-float1 {
                animation: float1 5s infinite;
            }

            @keyframes float2 {
                0%{transform: translate(0, 0)}
                50%{transform: translate(-5px, -5px)}
                100%{transform: translate(0, 0)}
            }

            .triangle-float2 {
                animation: float2 4s infinite;
            }

            @keyframes float3 {
                0%{transform: translate(0, 0)}
                50%{transform: translate(0, -10px)}
                100%{transform: translate(0, 0)}
            }

            .triangle-float3 {
                animation: float3 6s infinite;
            }
        </style></defs></svg>